<svg xmlns="http://www.w3.org/2000/svg" viewBox="0 0 560 350" width="560" height="350" role="img" aria-label="1.2-AuditoriaPQC">
<defs><radialGradient id="g" cx="0.75" cy="0.2" r="0.9">
<stop offset="0" stop-color="#3572A5" stop-opacity="0.13"/><stop offset="1" stop-color="#3572A5" stop-opacity="0"/>
</radialGradient></defs>

<rect width="560" height="350" fill="#0a0d12"/>
<rect width="560" height="350" fill="url(#g)"/>
<rect x="155.7" y="87.82" width="40.79" height="1" fill="#3572A5" opacity="0.16"/><rect x="515.2" y="154.08" width="51.18" height="1" fill="#3572A5" opacity="0.11"/><rect x="303.29" y="226.64" width="16.21" height="1" fill="#3572A5" opacity="0.14"/><rect x="196.5" y="127.19" width="71.34" height="1" fill="#3572A5" opacity="0.15"/><rect x="321.4" y="133.08" width="18.07" height="1" fill="#3572A5" opacity="0.09"/><rect x="559.62" y="77.57" width="41.87" height="1" fill="#3572A5" opacity="0.18"/><rect x="364.84" y="213.87" width="39.16" height="1" fill="#3572A5" opacity="0.14"/><rect x="161.37" y="100.17" width="21.79" height="1" fill="#3572A5" opacity="0.08"/><rect x="450.45" y="21.11" width="53.72" height="1" fill="#3572A5" opacity="0.14"/><rect x="130.37" y="187.84" width="66.53" height="1" fill="#3572A5" opacity="0.2"/><rect x="202.75" y="157.92" width="66.88" height="1" fill="#3572A5" opacity="0.07"/><rect x="167.95" y="215.25" width="28.06" height="1" fill="#3572A5" opacity="0.21"/><rect x="261.48" y="110.89" width="60.99" height="1" fill="#3572A5" opacity="0.2"/><rect x="504.07" y="73.35" width="29.51" height="1" fill="#3572A5" opacity="0.13"/><rect x="177.41" y="249.58" width="65.81" height="1" fill="#3572A5" opacity="0.19"/><rect x="420.24" y="132.05" width="71.26" height="1" fill="#3572A5" opacity="0.21"/><rect x="364.79" y="37.15" width="54.64" height="1" fill="#3572A5" opacity="0.1"/><rect x="524.75" y="195.63" width="30.07" height="1" fill="#3572A5" opacity="0.09"/><rect x="209.58" y="242.21" width="44.13" height="1" fill="#3572A5" opacity="0.21"/><rect x="186.29" y="23.31" width="54.08" height="1" fill="#3572A5" opacity="0.21"/><rect x="224.62" y="52.65" width="70.66" height="1" fill="#3572A5" opacity="0.06"/><rect x="353.51" y="195.76" width="61.68" height="1" fill="#3572A5" opacity="0.15"/><rect x="331.21" y="57.03" width="29.54" height="1" fill="#3572A5" opacity="0.07"/><rect x="540.31" y="42.88" width="37.18" height="1" fill="#3572A5" opacity="0.19"/><rect x="516.65" y="123.27" width="38.98" height="1" fill="#3572A5" opacity="0.08"/><rect x="237.96" y="92.43" width="43.99" height="1" fill="#3572A5" opacity="0.17"/><rect x="235.76" y="229.27" width="48.05" height="1" fill="#3572A5" opacity="0.13"/><rect x="278.82" y="102.74" width="32.68" height="1" fill="#3572A5" opacity="0.16"/><rect x="256.83" y="231.62" width="66.03" height="1" fill="#3572A5" opacity="0.11"/><rect x="404.13" y="34.74" width="75.97" height="1" fill="#3572A5" opacity="0.16"/><rect x="258.94" y="49.68" width="35.02" height="1" fill="#3572A5" opacity="0.19"/><rect x="499.72" y="36.09" width="17.7" height="1" fill="#3572A5" opacity="0.09"/><rect x="260.28" y="125.34" width="56.78" height="1" fill="#3572A5" opacity="0.07"/><rect x="227.29" y="20.1" width="37.32" height="1" fill="#3572A5" opacity="0.12"/><circle cx="452.39" cy="71.48" r="2.39" fill="#3572A5" opacity="0.21"/><circle cx="321.38" cy="71.38" r="1.7" fill="#3572A5" opacity="0.19"/><circle cx="194.9" cy="229.33" r="1.73" fill="#3572A5" opacity="0.24"/><circle cx="415.57" cy="178.21" r="1.03" fill="#3572A5" opacity="0.28"/><circle cx="340.43" cy="160.42" r="2.72" fill="#3572A5" opacity="0.21"/><circle cx="250.88" cy="213.34" r="1.54" fill="#3572A5" opacity="0.17"/><circle cx="223.44" cy="38.8" r="2.01" fill="#3572A5" opacity="0.26"/><circle cx="208.41" cy="67.26" r="1.01" fill="#3572A5" opacity="0.13"/><circle cx="140.26" cy="73.43" r="2.9" fill="#3572A5" opacity="0.29"/><circle cx="535.04" cy="70.12" r="2.65" fill="#3572A5" opacity="0.32"/><circle cx="427.8" cy="168.82" r="1.28" fill="#3572A5" opacity="0.32"/><circle cx="422.57" cy="203.05" r="1.1" fill="#3572A5" opacity="0.27"/>
<rect x="40" y="68" width="3" height="35" fill="#3572A5"/>
<text x="58" y="96" font-family="-apple-system,BlinkMacSystemFont,'Segoe UI',Inter,Helvetica,Arial,sans-serif" font-size="28" font-weight="700" fill="#e6edf3">1.2-AuditoriaPQC</text>
<text x="58" y="126" font-family="ui-monospace,'SF Mono',SFMono-Regular,Menlo,Consolas,'Liberation Mono',monospace" font-size="14" letter-spacing="1.4" fill="#7d8590">PYTHON</text>
<rect x="40" y="272" width="436.23" height="6" rx="3" fill="#3572A5"/><rect x="478.23" y="272" width="26.88" height="6" rx="3" fill="#89e051"/><rect x="507.11" y="272" width="10.89" height="6" rx="3" fill="#012456"/>
<text x="40" y="306" font-family="ui-monospace,'SF Mono',SFMono-Regular,Menlo,Consolas,'Liberation Mono',monospace" font-size="13" fill="#6e7681">5★  ·  Apache-2.0</text>
<text x="520" y="306" font-family="ui-monospace,'SF Mono',SFMono-Regular,Menlo,Consolas,'Liberation Mono',monospace" font-size="13" fill="#6e7681" text-anchor="end">1.2-AuditoriaPQC</text>
<rect x="0.5" y="0.5" width="559" height="349" fill="none" stroke="#1c222b"/>
</svg>