<svg xmlns="http://www.w3.org/2000/svg" viewBox="0 0 560 350" width="560" height="350" role="img" aria-label="JAVA">
<defs><radialGradient id="g" cx="0.75" cy="0.2" r="0.9">
<stop offset="0" stop-color="#8b949e" stop-opacity="0.13"/><stop offset="1" stop-color="#8b949e" stop-opacity="0"/>
</radialGradient></defs>

<rect width="560" height="350" fill="#0a0d12"/>
<rect width="560" height="350" fill="url(#g)"/>
<rect x="323.12" y="121.11" width="47.43" height="1" fill="#8b949e" opacity="0.08"/><rect x="261.17" y="30.62" width="75.08" height="1" fill="#8b949e" opacity="0.1"/><rect x="478.69" y="192.46" width="25.29" height="1" fill="#8b949e" opacity="0.19"/><rect x="218.99" y="146.37" width="29.42" height="1" fill="#8b949e" opacity="0.1"/><rect x="243.04" y="94.03" width="71.57" height="1" fill="#8b949e" opacity="0.11"/><rect x="385.05" y="152.28" width="74.83" height="1" fill="#8b949e" opacity="0.19"/><rect x="228.62" y="231.84" width="13.46" height="1" fill="#8b949e" opacity="0.07"/><rect x="339.05" y="47.09" width="74.82" height="1" fill="#8b949e" opacity="0.19"/><rect x="478.28" y="82.99" width="68.68" height="1" fill="#8b949e" opacity="0.05"/><rect x="228.94" y="169.3" width="55.44" height="1" fill="#8b949e" opacity="0.11"/><rect x="246.87" y="78.82" width="51.45" height="1" fill="#8b949e" opacity="0.12"/><rect x="471.15" y="54.61" width="63.74" height="1" fill="#8b949e" opacity="0.1"/><rect x="251.91" y="96.46" width="24.98" height="1" fill="#8b949e" opacity="0.12"/><rect x="125.21" y="62.94" width="34.31" height="1" fill="#8b949e" opacity="0.08"/><rect x="157.49" y="56.31" width="67.62" height="1" fill="#8b949e" opacity="0.15"/><rect x="313.55" y="189.24" width="35.61" height="1" fill="#8b949e" opacity="0.13"/><rect x="343.08" y="145.49" width="72.98" height="1" fill="#8b949e" opacity="0.15"/><rect x="407.48" y="226.63" width="38.74" height="1" fill="#8b949e" opacity="0.1"/><rect x="226.25" y="235.62" width="22.99" height="1" fill="#8b949e" opacity="0.11"/><rect x="454.16" y="247.59" width="72.31" height="1" fill="#8b949e" opacity="0.12"/><rect x="330.76" y="214.54" width="30.3" height="1" fill="#8b949e" opacity="0.06"/><rect x="182.95" y="27.97" width="13.09" height="1" fill="#8b949e" opacity="0.21"/><rect x="238.74" y="154.08" width="64.81" height="1" fill="#8b949e" opacity="0.14"/><rect x="481.05" y="162.34" width="13.66" height="1" fill="#8b949e" opacity="0.14"/><rect x="190.95" y="149.71" width="70.26" height="1" fill="#8b949e" opacity="0.14"/><rect x="160.01" y="158.45" width="44.18" height="1" fill="#8b949e" opacity="0.13"/><rect x="316.03" y="132.69" width="61.76" height="1" fill="#8b949e" opacity="0.06"/><rect x="318.93" y="121.74" width="23.63" height="1" fill="#8b949e" opacity="0.12"/><rect x="125.85" y="50.02" width="21.43" height="1" fill="#8b949e" opacity="0.18"/><rect x="390.66" y="203.82" width="48.35" height="1" fill="#8b949e" opacity="0.21"/><rect x="337.23" y="227.68" width="25.05" height="1" fill="#8b949e" opacity="0.2"/><rect x="332.19" y="172.18" width="22.88" height="1" fill="#8b949e" opacity="0.12"/><rect x="157.75" y="147.92" width="34.23" height="1" fill="#8b949e" opacity="0.17"/><rect x="314.69" y="67.17" width="40.96" height="1" fill="#8b949e" opacity="0.14"/><circle cx="492.08" cy="148.14" r="2.83" fill="#8b949e" opacity="0.3"/><circle cx="216.05" cy="75.66" r="2.84" fill="#8b949e" opacity="0.16"/><circle cx="339.02" cy="56.45" r="1.56" fill="#8b949e" opacity="0.29"/><circle cx="190.51" cy="185.16" r="1.32" fill="#8b949e" opacity="0.18"/><circle cx="415.88" cy="85.21" r="2.28" fill="#8b949e" opacity="0.29"/><circle cx="391.35" cy="24.74" r="1.28" fill="#8b949e" opacity="0.24"/><circle cx="335.39" cy="230.23" r="1.74" fill="#8b949e" opacity="0.17"/><circle cx="303.61" cy="231.72" r="1.74" fill="#8b949e" opacity="0.12"/><circle cx="484.96" cy="220.31" r="1.9" fill="#8b949e" opacity="0.21"/><circle cx="530.86" cy="195.71" r="1.7" fill="#8b949e" opacity="0.31"/><circle cx="403.48" cy="134.26" r="1.63" fill="#8b949e" opacity="0.23"/><circle cx="321.74" cy="119.17" r="2.35" fill="#8b949e" opacity="0.18"/>
<rect x="40" y="62" width="3" height="42" fill="#8b949e"/>
<text x="58" y="96" font-family="-apple-system,BlinkMacSystemFont,'Segoe UI',Inter,Helvetica,Arial,sans-serif" font-size="34" font-weight="700" fill="#e6edf3">JAVA</text>
<text x="58" y="126" font-family="ui-monospace,'SF Mono',SFMono-Regular,Menlo,Consolas,'Liberation Mono',monospace" font-size="14" letter-spacing="1.4" fill="#7d8590">REPOSITORY</text>

<text x="40" y="306" font-family="ui-monospace,'SF Mono',SFMono-Regular,Menlo,Consolas,'Liberation Mono',monospace" font-size="13" fill="#6e7681"></text>
<text x="520" y="306" font-family="ui-monospace,'SF Mono',SFMono-Regular,Menlo,Consolas,'Liberation Mono',monospace" font-size="13" fill="#6e7681" text-anchor="end">JAVA</text>
<rect x="0.5" y="0.5" width="559" height="349" fill="none" stroke="#1c222b"/>
</svg>