<svg xmlns="http://www.w3.org/2000/svg" viewBox="0 0 560 350" width="560" height="350" role="img" aria-label="SO-2324">
<defs><radialGradient id="g" cx="0.75" cy="0.2" r="0.9">
<stop offset="0" stop-color="#555555" stop-opacity="0.13"/><stop offset="1" stop-color="#555555" stop-opacity="0"/>
</radialGradient></defs>

<rect width="560" height="350" fill="#0a0d12"/>
<rect width="560" height="350" fill="url(#g)"/>
<rect x="183.63" y="175.62" width="23.53" height="1" fill="#555555" opacity="0.06"/><rect x="160.49" y="21.08" width="20.83" height="1" fill="#555555" opacity="0.08"/><rect x="448.16" y="132.32" width="14.7" height="1" fill="#555555" opacity="0.12"/><rect x="483.25" y="32.92" width="36.09" height="1" fill="#555555" opacity="0.13"/><rect x="271.84" y="214.8" width="60.04" height="1" fill="#555555" opacity="0.14"/><rect x="295.44" y="238.04" width="43.53" height="1" fill="#555555" opacity="0.05"/><rect x="556.43" y="83.94" width="46.49" height="1" fill="#555555" opacity="0.14"/><rect x="238.87" y="91.88" width="61.82" height="1" fill="#555555" opacity="0.12"/><rect x="350.91" y="239.22" width="13.73" height="1" fill="#555555" opacity="0.16"/><rect x="322.78" y="183.8" width="28.04" height="1" fill="#555555" opacity="0.06"/><rect x="203.76" y="31.62" width="30.3" height="1" fill="#555555" opacity="0.09"/><rect x="305.18" y="240.71" width="58.08" height="1" fill="#555555" opacity="0.16"/><rect x="253.96" y="147.13" width="74.64" height="1" fill="#555555" opacity="0.19"/><rect x="483.59" y="80.89" width="63.96" height="1" fill="#555555" opacity="0.05"/><rect x="298.43" y="102.84" width="24.11" height="1" fill="#555555" opacity="0.14"/><rect x="447.93" y="218.54" width="41.98" height="1" fill="#555555" opacity="0.14"/><rect x="557.69" y="67.07" width="31.64" height="1" fill="#555555" opacity="0.13"/><rect x="276.72" y="249.08" width="46.52" height="1" fill="#555555" opacity="0.05"/><rect x="246.21" y="147.86" width="73.6" height="1" fill="#555555" opacity="0.12"/><rect x="345.27" y="174.18" width="44.39" height="1" fill="#555555" opacity="0.11"/><rect x="328.12" y="61.47" width="40.53" height="1" fill="#555555" opacity="0.07"/><rect x="240.75" y="219.51" width="12.34" height="1" fill="#555555" opacity="0.14"/><rect x="374.54" y="221.53" width="22.08" height="1" fill="#555555" opacity="0.08"/><rect x="361.65" y="244.58" width="37.34" height="1" fill="#555555" opacity="0.1"/><rect x="558.17" y="38.02" width="14.33" height="1" fill="#555555" opacity="0.1"/><rect x="313.23" y="168.15" width="15.07" height="1" fill="#555555" opacity="0.2"/><rect x="555.8" y="150.49" width="57.13" height="1" fill="#555555" opacity="0.12"/><rect x="135.7" y="249.11" width="66.96" height="1" fill="#555555" opacity="0.12"/><rect x="213.28" y="167.14" width="34.29" height="1" fill="#555555" opacity="0.13"/><rect x="547.73" y="151.5" width="33.78" height="1" fill="#555555" opacity="0.13"/><rect x="442.3" y="102.37" width="60.51" height="1" fill="#555555" opacity="0.05"/><rect x="183.07" y="190.79" width="22.59" height="1" fill="#555555" opacity="0.15"/><rect x="494.78" y="242.47" width="23.73" height="1" fill="#555555" opacity="0.08"/><rect x="235.69" y="135.83" width="58.14" height="1" fill="#555555" opacity="0.21"/><circle cx="268.57" cy="224.29" r="2.62" fill="#555555" opacity="0.17"/><circle cx="190.23" cy="175.38" r="2.14" fill="#555555" opacity="0.27"/><circle cx="392.07" cy="185.92" r="1.94" fill="#555555" opacity="0.31"/><circle cx="533.68" cy="213.43" r="2.95" fill="#555555" opacity="0.28"/><circle cx="451.27" cy="182.55" r="1.94" fill="#555555" opacity="0.24"/><circle cx="524.72" cy="106.78" r="1.72" fill="#555555" opacity="0.21"/><circle cx="503.28" cy="171.85" r="2.22" fill="#555555" opacity="0.25"/><circle cx="317.53" cy="34.75" r="1.12" fill="#555555" opacity="0.31"/><circle cx="382.24" cy="31.24" r="2.49" fill="#555555" opacity="0.24"/><circle cx="264.64" cy="65.93" r="1.38" fill="#555555" opacity="0.26"/><circle cx="253.84" cy="171.24" r="1.59" fill="#555555" opacity="0.31"/><circle cx="414.76" cy="65.21" r="1.67" fill="#555555" opacity="0.25"/>
<rect x="40" y="62" width="3" height="42" fill="#555555"/>
<text x="58" y="96" font-family="-apple-system,BlinkMacSystemFont,'Segoe UI',Inter,Helvetica,Arial,sans-serif" font-size="34" font-weight="700" fill="#e6edf3">SO-2324</text>
<text x="58" y="126" font-family="ui-monospace,'SF Mono',SFMono-Regular,Menlo,Consolas,'Liberation Mono',monospace" font-size="14" letter-spacing="1.4" fill="#7d8590">C</text>
<rect x="40" y="272" width="322.49" height="6" rx="3" fill="#555555"/><rect x="364.49" y="272" width="81.21" height="6" rx="3" fill="#DA3434"/><rect x="447.71" y="272" width="69.87" height="6" rx="3" fill="#427819"/><rect x="519.57" y="272" width="2" height="6" rx="3" fill="#3178c6"/>
<text x="40" y="306" font-family="ui-monospace,'SF Mono',SFMono-Regular,Menlo,Consolas,'Liberation Mono',monospace" font-size="13" fill="#6e7681"></text>
<text x="520" y="306" font-family="ui-monospace,'SF Mono',SFMono-Regular,Menlo,Consolas,'Liberation Mono',monospace" font-size="13" fill="#6e7681" text-anchor="end">SO-2324</text>
<rect x="0.5" y="0.5" width="559" height="349" fill="none" stroke="#1c222b"/>
</svg>